<mxfile host="app.diagrams.net" modified="2023-11-04T09:00:40.549Z" agent="Mozilla/5.0 (Windows NT 10.0; Win64; x64) AppleWebKit/537.36 (KHTML, like Gecko) Chrome/119.0.0.0 Safari/537.36" etag="w9QHwbKethz015W57eR5" version="22.0.8" type="device">
  <diagram name="1 oldal" id="9wayKfoV_XY9qUyf4h8t">
    <mxGraphModel dx="7580" dy="3033" grid="0" gridSize="10" guides="1" tooltips="1" connect="1" arrows="1" fold="1" page="0" pageScale="1" pageWidth="827" pageHeight="1169" math="0" shadow="0">
      <root>
        <mxCell id="0" />
        <mxCell id="1" parent="0" />
        <mxCell id="ePVOCWX1ytfb92GdYlwg-3" value="Hadsereg_HEPMIU" style="ellipse;whiteSpace=wrap;html=1;align=center;" parent="1" vertex="1">
          <mxGeometry x="130" y="-240" width="120" height="60" as="geometry" />
        </mxCell>
        <mxCell id="ePVOCWX1ytfb92GdYlwg-4" value="Hadsereg" style="ellipse;shape=doubleEllipse;margin=3;whiteSpace=wrap;html=1;align=center;strokeColor=default;verticalAlign=middle;fontFamily=Helvetica;fontSize=12;fontColor=default;fillColor=default;" parent="1" vertex="1">
          <mxGeometry x="-2560" y="110" width="120" height="60" as="geometry" />
        </mxCell>
        <mxCell id="ePVOCWX1ytfb92GdYlwg-5" value="Tisztek" style="ellipse;shape=doubleEllipse;margin=3;whiteSpace=wrap;html=1;align=center;strokeColor=default;verticalAlign=middle;fontFamily=Helvetica;fontSize=12;fontColor=default;fillColor=default;" parent="1" vertex="1">
          <mxGeometry x="-710" y="110" width="120" height="60" as="geometry" />
        </mxCell>
        <mxCell id="ePVOCWX1ytfb92GdYlwg-6" value="Főparancsnok" style="ellipse;shape=doubleEllipse;margin=3;whiteSpace=wrap;html=1;align=center;strokeColor=default;verticalAlign=middle;fontFamily=Helvetica;fontSize=12;fontColor=default;fillColor=default;" parent="1" vertex="1">
          <mxGeometry x="-1690" y="110" width="120" height="60" as="geometry" />
        </mxCell>
        <mxCell id="ePVOCWX1ytfb92GdYlwg-7" value="Katonák" style="ellipse;shape=doubleEllipse;margin=3;whiteSpace=wrap;html=1;align=center;strokeColor=default;verticalAlign=middle;fontFamily=Helvetica;fontSize=12;fontColor=default;fillColor=default;" parent="1" vertex="1">
          <mxGeometry x="130" y="110" width="120" height="60" as="geometry" />
        </mxCell>
        <mxCell id="ePVOCWX1ytfb92GdYlwg-8" value="Tengerészet" style="ellipse;shape=doubleEllipse;margin=3;whiteSpace=wrap;html=1;align=center;strokeColor=default;verticalAlign=middle;fontFamily=Helvetica;fontSize=12;fontColor=default;fillColor=default;" parent="1" vertex="1">
          <mxGeometry x="1240" y="120" width="120" height="60" as="geometry" />
        </mxCell>
        <mxCell id="ePVOCWX1ytfb92GdYlwg-9" value="Szárazföldi erők" style="ellipse;shape=doubleEllipse;margin=3;whiteSpace=wrap;html=1;align=center;strokeColor=default;verticalAlign=middle;fontFamily=Helvetica;fontSize=12;fontColor=default;fillColor=default;" parent="1" vertex="1">
          <mxGeometry x="750" y="120" width="120" height="60" as="geometry" />
        </mxCell>
        <mxCell id="ePVOCWX1ytfb92GdYlwg-10" value="Légierő" style="ellipse;shape=doubleEllipse;margin=3;whiteSpace=wrap;html=1;align=center;strokeColor=default;verticalAlign=middle;fontFamily=Helvetica;fontSize=12;fontColor=default;fillColor=default;" parent="1" vertex="1">
          <mxGeometry x="1650" y="110" width="120" height="60" as="geometry" />
        </mxCell>
        <mxCell id="ePVOCWX1ytfb92GdYlwg-13" value="" style="endArrow=none;html=1;rounded=0;fontFamily=Helvetica;fontSize=12;fontColor=default;exitX=0.5;exitY=1;exitDx=0;exitDy=0;" parent="1" source="ePVOCWX1ytfb92GdYlwg-3" target="ePVOCWX1ytfb92GdYlwg-7" edge="1">
          <mxGeometry relative="1" as="geometry">
            <mxPoint x="160" y="110" as="sourcePoint" />
            <mxPoint x="320" y="110" as="targetPoint" />
          </mxGeometry>
        </mxCell>
        <mxCell id="ePVOCWX1ytfb92GdYlwg-14" value="" style="endArrow=none;html=1;rounded=0;fontFamily=Helvetica;fontSize=12;fontColor=default;exitX=1;exitY=1;exitDx=0;exitDy=0;entryX=0.5;entryY=0;entryDx=0;entryDy=0;" parent="1" source="ePVOCWX1ytfb92GdYlwg-3" target="ePVOCWX1ytfb92GdYlwg-9" edge="1">
          <mxGeometry relative="1" as="geometry">
            <mxPoint x="160" y="110" as="sourcePoint" />
            <mxPoint x="320" y="110" as="targetPoint" />
          </mxGeometry>
        </mxCell>
        <mxCell id="ePVOCWX1ytfb92GdYlwg-15" value="" style="endArrow=none;html=1;rounded=0;fontFamily=Helvetica;fontSize=12;fontColor=default;entryX=1;entryY=0.5;entryDx=0;entryDy=0;exitX=0.5;exitY=0;exitDx=0;exitDy=0;" parent="1" source="ePVOCWX1ytfb92GdYlwg-8" target="ePVOCWX1ytfb92GdYlwg-3" edge="1">
          <mxGeometry relative="1" as="geometry">
            <mxPoint x="160" y="110" as="sourcePoint" />
            <mxPoint x="320" y="110" as="targetPoint" />
          </mxGeometry>
        </mxCell>
        <mxCell id="ePVOCWX1ytfb92GdYlwg-16" value="" style="endArrow=none;html=1;rounded=0;fontFamily=Helvetica;fontSize=12;fontColor=default;entryX=0;entryY=1;entryDx=0;entryDy=0;exitX=0.5;exitY=0;exitDx=0;exitDy=0;" parent="1" source="ePVOCWX1ytfb92GdYlwg-5" target="ePVOCWX1ytfb92GdYlwg-3" edge="1">
          <mxGeometry relative="1" as="geometry">
            <mxPoint x="160" y="110" as="sourcePoint" />
            <mxPoint x="320" y="110" as="targetPoint" />
          </mxGeometry>
        </mxCell>
        <mxCell id="ePVOCWX1ytfb92GdYlwg-17" value="" style="endArrow=none;html=1;rounded=0;fontFamily=Helvetica;fontSize=12;fontColor=default;exitX=0;exitY=0.5;exitDx=0;exitDy=0;entryX=0.5;entryY=0;entryDx=0;entryDy=0;" parent="1" source="ePVOCWX1ytfb92GdYlwg-3" target="ePVOCWX1ytfb92GdYlwg-6" edge="1">
          <mxGeometry relative="1" as="geometry">
            <mxPoint x="160" y="110" as="sourcePoint" />
            <mxPoint x="320" y="110" as="targetPoint" />
          </mxGeometry>
        </mxCell>
        <mxCell id="ePVOCWX1ytfb92GdYlwg-18" value="" style="endArrow=none;html=1;rounded=0;fontFamily=Helvetica;fontSize=12;fontColor=default;exitX=1;exitY=0;exitDx=0;exitDy=0;entryX=0.5;entryY=0;entryDx=0;entryDy=0;" parent="1" source="ePVOCWX1ytfb92GdYlwg-3" target="ePVOCWX1ytfb92GdYlwg-10" edge="1">
          <mxGeometry relative="1" as="geometry">
            <mxPoint x="160" y="10" as="sourcePoint" />
            <mxPoint x="320" y="10" as="targetPoint" />
          </mxGeometry>
        </mxCell>
        <mxCell id="ePVOCWX1ytfb92GdYlwg-19" value="" style="endArrow=none;html=1;rounded=0;fontFamily=Helvetica;fontSize=12;fontColor=default;exitX=0;exitY=0;exitDx=0;exitDy=0;entryX=0.5;entryY=0;entryDx=0;entryDy=0;" parent="1" source="ePVOCWX1ytfb92GdYlwg-3" target="ePVOCWX1ytfb92GdYlwg-4" edge="1">
          <mxGeometry relative="1" as="geometry">
            <mxPoint x="160" y="10" as="sourcePoint" />
            <mxPoint x="-380" y="70" as="targetPoint" />
          </mxGeometry>
        </mxCell>
        <mxCell id="ePVOCWX1ytfb92GdYlwg-20" value="&lt;u&gt;hadseregID&lt;/u&gt;" style="rhombus;whiteSpace=wrap;html=1;strokeColor=default;align=center;verticalAlign=middle;fontFamily=Helvetica;fontSize=12;fontColor=default;fillColor=default;" parent="1" vertex="1">
          <mxGeometry x="-2790" y="170" width="80" height="80" as="geometry" />
        </mxCell>
        <mxCell id="ePVOCWX1ytfb92GdYlwg-21" value="&lt;u&gt;T_sorszám&lt;/u&gt;" style="rhombus;whiteSpace=wrap;html=1;strokeColor=default;align=center;verticalAlign=middle;fontFamily=Helvetica;fontSize=12;fontColor=default;fillColor=default;" parent="1" vertex="1">
          <mxGeometry x="-1010" y="170" width="80" height="80" as="geometry" />
        </mxCell>
        <mxCell id="ePVOCWX1ytfb92GdYlwg-22" value="&lt;u&gt;F_sorszám&lt;/u&gt;" style="rhombus;whiteSpace=wrap;html=1;strokeColor=default;align=center;verticalAlign=middle;fontFamily=Helvetica;fontSize=12;fontColor=default;fillColor=default;" parent="1" vertex="1">
          <mxGeometry x="-1960" y="170" width="80" height="80" as="geometry" />
        </mxCell>
        <mxCell id="ePVOCWX1ytfb92GdYlwg-23" value="&lt;u&gt;SzE_ID&lt;/u&gt;" style="rhombus;whiteSpace=wrap;html=1;strokeColor=default;align=center;verticalAlign=middle;fontFamily=Helvetica;fontSize=12;fontColor=default;fillColor=default;" parent="1" vertex="1">
          <mxGeometry x="640" y="190" width="80" height="80" as="geometry" />
        </mxCell>
        <mxCell id="ePVOCWX1ytfb92GdYlwg-24" value="&lt;u&gt;Teng_ID&lt;/u&gt;" style="rhombus;whiteSpace=wrap;html=1;strokeColor=default;align=center;verticalAlign=middle;fontFamily=Helvetica;fontSize=12;fontColor=default;fillColor=default;" parent="1" vertex="1">
          <mxGeometry x="1120" y="190" width="80" height="80" as="geometry" />
        </mxCell>
        <mxCell id="ePVOCWX1ytfb92GdYlwg-25" value="&lt;u&gt;Leg_ID&lt;/u&gt;" style="rhombus;whiteSpace=wrap;html=1;strokeColor=default;align=center;verticalAlign=middle;fontFamily=Helvetica;fontSize=12;fontColor=default;fillColor=default;" parent="1" vertex="1">
          <mxGeometry x="1560" y="190" width="80" height="80" as="geometry" />
        </mxCell>
        <mxCell id="ePVOCWX1ytfb92GdYlwg-26" value="&lt;u&gt;K_sorszám&lt;/u&gt;" style="rhombus;whiteSpace=wrap;html=1;strokeColor=default;align=center;verticalAlign=middle;fontFamily=Helvetica;fontSize=12;fontColor=default;fillColor=default;" parent="1" vertex="1">
          <mxGeometry x="-230" y="170" width="80" height="80" as="geometry" />
        </mxCell>
        <mxCell id="ePVOCWX1ytfb92GdYlwg-27" value="" style="endArrow=none;html=1;rounded=0;fontFamily=Helvetica;fontSize=12;fontColor=default;exitX=0;exitY=0;exitDx=0;exitDy=0;entryX=0.5;entryY=0;entryDx=0;entryDy=0;" parent="1" source="ePVOCWX1ytfb92GdYlwg-4" target="ePVOCWX1ytfb92GdYlwg-20" edge="1">
          <mxGeometry relative="1" as="geometry">
            <mxPoint x="-2080" y="210" as="sourcePoint" />
            <mxPoint x="-1920" y="210" as="targetPoint" />
          </mxGeometry>
        </mxCell>
        <mxCell id="ePVOCWX1ytfb92GdYlwg-29" value="létszám" style="ellipse;whiteSpace=wrap;html=1;align=center;strokeColor=default;verticalAlign=middle;fontFamily=Helvetica;fontSize=12;fontColor=default;fillColor=default;" parent="1" vertex="1">
          <mxGeometry x="-2680" y="190" width="100" height="40" as="geometry" />
        </mxCell>
        <mxCell id="ePVOCWX1ytfb92GdYlwg-30" value="fejlettség" style="ellipse;whiteSpace=wrap;html=1;align=center;strokeColor=default;verticalAlign=middle;fontFamily=Helvetica;fontSize=12;fontColor=default;fillColor=default;" parent="1" vertex="1">
          <mxGeometry x="-2220" y="190" width="100" height="40" as="geometry" />
        </mxCell>
        <mxCell id="ePVOCWX1ytfb92GdYlwg-31" value="országNév" style="ellipse;whiteSpace=wrap;html=1;align=center;strokeColor=default;verticalAlign=middle;fontFamily=Helvetica;fontSize=12;fontColor=default;fillColor=default;" parent="1" vertex="1">
          <mxGeometry x="-2550" y="190" width="100" height="40" as="geometry" />
        </mxCell>
        <mxCell id="ePVOCWX1ytfb92GdYlwg-32" value="pozíció" style="ellipse;shape=doubleEllipse;margin=3;whiteSpace=wrap;html=1;align=center;strokeColor=default;verticalAlign=middle;fontFamily=Helvetica;fontSize=12;fontColor=default;fillColor=default;" parent="1" vertex="1">
          <mxGeometry x="-2420" y="190" width="100" height="40" as="geometry" />
        </mxCell>
        <mxCell id="ePVOCWX1ytfb92GdYlwg-33" value="Támadás" style="ellipse;whiteSpace=wrap;html=1;align=center;strokeColor=default;verticalAlign=middle;fontFamily=Helvetica;fontSize=12;fontColor=default;fillColor=default;" parent="1" vertex="1">
          <mxGeometry x="-2220" y="280" width="100" height="40" as="geometry" />
        </mxCell>
        <mxCell id="ePVOCWX1ytfb92GdYlwg-34" value="Űtőképesség" style="ellipse;whiteSpace=wrap;html=1;align=center;strokeColor=default;verticalAlign=middle;fontFamily=Helvetica;fontSize=12;fontColor=default;fillColor=default;" parent="1" vertex="1">
          <mxGeometry x="-2330" y="280" width="100" height="40" as="geometry" />
        </mxCell>
        <mxCell id="ePVOCWX1ytfb92GdYlwg-35" value="Védekezés" style="ellipse;whiteSpace=wrap;html=1;align=center;strokeColor=default;verticalAlign=middle;fontFamily=Helvetica;fontSize=12;fontColor=default;fillColor=default;" parent="1" vertex="1">
          <mxGeometry x="-2110" y="280" width="100" height="40" as="geometry" />
        </mxCell>
        <mxCell id="ePVOCWX1ytfb92GdYlwg-36" value="" style="endArrow=none;html=1;rounded=0;fontFamily=Helvetica;fontSize=12;fontColor=default;exitX=0;exitY=0.5;exitDx=0;exitDy=0;entryX=0.5;entryY=0;entryDx=0;entryDy=0;" parent="1" source="ePVOCWX1ytfb92GdYlwg-4" target="ePVOCWX1ytfb92GdYlwg-29" edge="1">
          <mxGeometry relative="1" as="geometry">
            <mxPoint x="-2420" y="140" as="sourcePoint" />
            <mxPoint x="-2260" y="140" as="targetPoint" />
          </mxGeometry>
        </mxCell>
        <mxCell id="ePVOCWX1ytfb92GdYlwg-37" value="" style="endArrow=none;html=1;rounded=0;fontFamily=Helvetica;fontSize=12;fontColor=default;exitX=0.5;exitY=1;exitDx=0;exitDy=0;entryX=0.5;entryY=0;entryDx=0;entryDy=0;" parent="1" source="ePVOCWX1ytfb92GdYlwg-4" target="ePVOCWX1ytfb92GdYlwg-31" edge="1">
          <mxGeometry relative="1" as="geometry">
            <mxPoint x="-2420" y="140" as="sourcePoint" />
            <mxPoint x="-2260" y="140" as="targetPoint" />
          </mxGeometry>
        </mxCell>
        <mxCell id="ePVOCWX1ytfb92GdYlwg-38" value="" style="endArrow=none;html=1;rounded=0;fontFamily=Helvetica;fontSize=12;fontColor=default;exitX=1;exitY=0.5;exitDx=0;exitDy=0;entryX=0.5;entryY=0;entryDx=0;entryDy=0;" parent="1" source="ePVOCWX1ytfb92GdYlwg-4" target="ePVOCWX1ytfb92GdYlwg-32" edge="1">
          <mxGeometry relative="1" as="geometry">
            <mxPoint x="-2420" y="140" as="sourcePoint" />
            <mxPoint x="-2260" y="140" as="targetPoint" />
          </mxGeometry>
        </mxCell>
        <mxCell id="ePVOCWX1ytfb92GdYlwg-39" value="" style="endArrow=none;html=1;rounded=0;fontFamily=Helvetica;fontSize=12;fontColor=default;exitX=1;exitY=0;exitDx=0;exitDy=0;entryX=0.5;entryY=0;entryDx=0;entryDy=0;" parent="1" source="ePVOCWX1ytfb92GdYlwg-4" target="ePVOCWX1ytfb92GdYlwg-30" edge="1">
          <mxGeometry relative="1" as="geometry">
            <mxPoint x="-2420" y="140" as="sourcePoint" />
            <mxPoint x="-2260" y="140" as="targetPoint" />
          </mxGeometry>
        </mxCell>
        <mxCell id="ePVOCWX1ytfb92GdYlwg-40" value="" style="endArrow=none;html=1;rounded=0;fontFamily=Helvetica;fontSize=12;fontColor=default;exitX=0;exitY=1;exitDx=0;exitDy=0;entryX=0.5;entryY=0;entryDx=0;entryDy=0;" parent="1" source="ePVOCWX1ytfb92GdYlwg-30" target="ePVOCWX1ytfb92GdYlwg-34" edge="1">
          <mxGeometry relative="1" as="geometry">
            <mxPoint x="-2420" y="140" as="sourcePoint" />
            <mxPoint x="-2260" y="140" as="targetPoint" />
          </mxGeometry>
        </mxCell>
        <mxCell id="ePVOCWX1ytfb92GdYlwg-41" value="" style="endArrow=none;html=1;rounded=0;fontFamily=Helvetica;fontSize=12;fontColor=default;entryX=0.5;entryY=1;entryDx=0;entryDy=0;exitX=0.5;exitY=0;exitDx=0;exitDy=0;" parent="1" source="ePVOCWX1ytfb92GdYlwg-33" target="ePVOCWX1ytfb92GdYlwg-30" edge="1">
          <mxGeometry relative="1" as="geometry">
            <mxPoint x="-2420" y="140" as="sourcePoint" />
            <mxPoint x="-2260" y="140" as="targetPoint" />
          </mxGeometry>
        </mxCell>
        <mxCell id="ePVOCWX1ytfb92GdYlwg-42" style="edgeStyle=orthogonalEdgeStyle;rounded=0;orthogonalLoop=1;jettySize=auto;html=1;exitX=0.5;exitY=1;exitDx=0;exitDy=0;fontFamily=Helvetica;fontSize=12;fontColor=default;" parent="1" source="ePVOCWX1ytfb92GdYlwg-34" target="ePVOCWX1ytfb92GdYlwg-34" edge="1">
          <mxGeometry relative="1" as="geometry" />
        </mxCell>
        <mxCell id="ePVOCWX1ytfb92GdYlwg-43" value="" style="endArrow=none;html=1;rounded=0;fontFamily=Helvetica;fontSize=12;fontColor=default;entryX=1;entryY=1;entryDx=0;entryDy=0;exitX=0.5;exitY=0;exitDx=0;exitDy=0;" parent="1" source="ePVOCWX1ytfb92GdYlwg-35" target="ePVOCWX1ytfb92GdYlwg-30" edge="1">
          <mxGeometry relative="1" as="geometry">
            <mxPoint x="-2420" y="140" as="sourcePoint" />
            <mxPoint x="-2260" y="140" as="targetPoint" />
          </mxGeometry>
        </mxCell>
        <mxCell id="ePVOCWX1ytfb92GdYlwg-44" value="" style="whiteSpace=wrap;html=1;align=center;strokeColor=default;verticalAlign=middle;fontFamily=Helvetica;fontSize=12;fontColor=default;fillColor=default;direction=south;" parent="1" vertex="1">
          <mxGeometry x="-2650" y="270" width="40" height="100" as="geometry" />
        </mxCell>
        <mxCell id="ePVOCWX1ytfb92GdYlwg-45" value="" style="whiteSpace=wrap;html=1;align=center;strokeColor=default;verticalAlign=middle;fontFamily=Helvetica;fontSize=12;fontColor=default;fillColor=default;direction=south;" parent="1" vertex="1">
          <mxGeometry x="-2520" y="270" width="40" height="100" as="geometry" />
        </mxCell>
        <mxCell id="ePVOCWX1ytfb92GdYlwg-46" value="" style="whiteSpace=wrap;html=1;align=center;strokeColor=default;verticalAlign=middle;fontFamily=Helvetica;fontSize=12;fontColor=default;fillColor=default;direction=south;" parent="1" vertex="1">
          <mxGeometry x="-2390" y="270" width="40" height="100" as="geometry" />
        </mxCell>
        <mxCell id="ePVOCWX1ytfb92GdYlwg-47" value="" style="endArrow=none;html=1;rounded=0;fontFamily=Helvetica;fontSize=12;fontColor=default;exitX=0.5;exitY=1;exitDx=0;exitDy=0;entryX=0;entryY=0.5;entryDx=0;entryDy=0;" parent="1" source="ePVOCWX1ytfb92GdYlwg-29" target="ePVOCWX1ytfb92GdYlwg-44" edge="1">
          <mxGeometry relative="1" as="geometry">
            <mxPoint x="-2420" y="140" as="sourcePoint" />
            <mxPoint x="-2260" y="140" as="targetPoint" />
          </mxGeometry>
        </mxCell>
        <mxCell id="ePVOCWX1ytfb92GdYlwg-48" value="" style="endArrow=none;html=1;rounded=0;fontFamily=Helvetica;fontSize=12;fontColor=default;exitX=0.5;exitY=1;exitDx=0;exitDy=0;entryX=0;entryY=0.5;entryDx=0;entryDy=0;" parent="1" source="ePVOCWX1ytfb92GdYlwg-31" target="ePVOCWX1ytfb92GdYlwg-45" edge="1">
          <mxGeometry relative="1" as="geometry">
            <mxPoint x="-2420" y="140" as="sourcePoint" />
            <mxPoint x="-2260" y="140" as="targetPoint" />
          </mxGeometry>
        </mxCell>
        <mxCell id="ePVOCWX1ytfb92GdYlwg-49" value="" style="endArrow=none;html=1;rounded=0;fontFamily=Helvetica;fontSize=12;fontColor=default;exitX=0.5;exitY=1;exitDx=0;exitDy=0;entryX=0;entryY=0.5;entryDx=0;entryDy=0;" parent="1" source="ePVOCWX1ytfb92GdYlwg-32" target="ePVOCWX1ytfb92GdYlwg-46" edge="1">
          <mxGeometry relative="1" as="geometry">
            <mxPoint x="-2420" y="140" as="sourcePoint" />
            <mxPoint x="-2260" y="140" as="targetPoint" />
          </mxGeometry>
        </mxCell>
        <mxCell id="ePVOCWX1ytfb92GdYlwg-50" value="név" style="ellipse;whiteSpace=wrap;html=1;align=center;strokeColor=default;verticalAlign=middle;fontFamily=Helvetica;fontSize=12;fontColor=default;fillColor=default;" parent="1" vertex="1">
          <mxGeometry x="-1870" y="190" width="100" height="40" as="geometry" />
        </mxCell>
        <mxCell id="ePVOCWX1ytfb92GdYlwg-51" value="életkor" style="ellipse;whiteSpace=wrap;html=1;align=center;strokeColor=default;verticalAlign=middle;fontFamily=Helvetica;fontSize=12;fontColor=default;fillColor=default;" parent="1" vertex="1">
          <mxGeometry x="-1740" y="190" width="100" height="40" as="geometry" />
        </mxCell>
        <mxCell id="ePVOCWX1ytfb92GdYlwg-52" value="" style="whiteSpace=wrap;html=1;align=center;strokeColor=default;verticalAlign=middle;fontFamily=Helvetica;fontSize=12;fontColor=default;fillColor=default;direction=south;" parent="1" vertex="1">
          <mxGeometry x="-1840" y="270" width="40" height="100" as="geometry" />
        </mxCell>
        <mxCell id="ePVOCWX1ytfb92GdYlwg-53" value="" style="whiteSpace=wrap;html=1;align=center;strokeColor=default;verticalAlign=middle;fontFamily=Helvetica;fontSize=12;fontColor=default;fillColor=default;direction=south;" parent="1" vertex="1">
          <mxGeometry x="-1710" y="270" width="40" height="100" as="geometry" />
        </mxCell>
        <mxCell id="ePVOCWX1ytfb92GdYlwg-54" value="" style="endArrow=none;html=1;rounded=0;fontFamily=Helvetica;fontSize=12;fontColor=default;exitX=0.5;exitY=1;exitDx=0;exitDy=0;entryX=0;entryY=0.5;entryDx=0;entryDy=0;" parent="1" source="ePVOCWX1ytfb92GdYlwg-50" target="ePVOCWX1ytfb92GdYlwg-52" edge="1">
          <mxGeometry relative="1" as="geometry">
            <mxPoint x="-1610" y="140" as="sourcePoint" />
            <mxPoint x="-1450" y="140" as="targetPoint" />
          </mxGeometry>
        </mxCell>
        <mxCell id="ePVOCWX1ytfb92GdYlwg-55" value="" style="endArrow=none;html=1;rounded=0;fontFamily=Helvetica;fontSize=12;fontColor=default;exitX=0.5;exitY=1;exitDx=0;exitDy=0;entryX=0;entryY=0.5;entryDx=0;entryDy=0;" parent="1" source="ePVOCWX1ytfb92GdYlwg-51" target="ePVOCWX1ytfb92GdYlwg-53" edge="1">
          <mxGeometry relative="1" as="geometry">
            <mxPoint x="-1610" y="140" as="sourcePoint" />
            <mxPoint x="-1450" y="140" as="targetPoint" />
          </mxGeometry>
        </mxCell>
        <mxCell id="ePVOCWX1ytfb92GdYlwg-56" value="rang" style="ellipse;whiteSpace=wrap;html=1;align=center;strokeColor=default;verticalAlign=middle;fontFamily=Helvetica;fontSize=12;fontColor=default;fillColor=default;" parent="1" vertex="1">
          <mxGeometry x="-1610" y="190" width="100" height="40" as="geometry" />
        </mxCell>
        <mxCell id="ePVOCWX1ytfb92GdYlwg-57" value="szolgIdő" style="ellipse;whiteSpace=wrap;html=1;align=center;strokeColor=default;verticalAlign=middle;fontFamily=Helvetica;fontSize=12;fontColor=default;fillColor=default;" parent="1" vertex="1">
          <mxGeometry x="-1480" y="190" width="100" height="40" as="geometry" />
        </mxCell>
        <mxCell id="ePVOCWX1ytfb92GdYlwg-58" value="" style="whiteSpace=wrap;html=1;align=center;strokeColor=default;verticalAlign=middle;fontFamily=Helvetica;fontSize=12;fontColor=default;fillColor=default;direction=south;" parent="1" vertex="1">
          <mxGeometry x="-1580" y="270" width="40" height="100" as="geometry" />
        </mxCell>
        <mxCell id="ePVOCWX1ytfb92GdYlwg-59" value="" style="whiteSpace=wrap;html=1;align=center;strokeColor=default;verticalAlign=middle;fontFamily=Helvetica;fontSize=12;fontColor=default;fillColor=default;direction=south;" parent="1" vertex="1">
          <mxGeometry x="-1450" y="270" width="40" height="100" as="geometry" />
        </mxCell>
        <mxCell id="ePVOCWX1ytfb92GdYlwg-60" value="" style="endArrow=none;html=1;rounded=0;fontFamily=Helvetica;fontSize=12;fontColor=default;exitX=0.5;exitY=1;exitDx=0;exitDy=0;entryX=0;entryY=0.5;entryDx=0;entryDy=0;" parent="1" source="ePVOCWX1ytfb92GdYlwg-56" target="ePVOCWX1ytfb92GdYlwg-58" edge="1">
          <mxGeometry relative="1" as="geometry">
            <mxPoint x="-1350" y="140" as="sourcePoint" />
            <mxPoint x="-1190" y="140" as="targetPoint" />
          </mxGeometry>
        </mxCell>
        <mxCell id="ePVOCWX1ytfb92GdYlwg-61" value="" style="endArrow=none;html=1;rounded=0;fontFamily=Helvetica;fontSize=12;fontColor=default;exitX=0.5;exitY=1;exitDx=0;exitDy=0;entryX=0;entryY=0.5;entryDx=0;entryDy=0;" parent="1" source="ePVOCWX1ytfb92GdYlwg-57" target="ePVOCWX1ytfb92GdYlwg-59" edge="1">
          <mxGeometry relative="1" as="geometry">
            <mxPoint x="-1350" y="140" as="sourcePoint" />
            <mxPoint x="-1190" y="140" as="targetPoint" />
          </mxGeometry>
        </mxCell>
        <mxCell id="ePVOCWX1ytfb92GdYlwg-62" value="" style="endArrow=none;html=1;rounded=0;fontFamily=Helvetica;fontSize=12;fontColor=default;exitX=0.5;exitY=0;exitDx=0;exitDy=0;entryX=0;entryY=0;entryDx=0;entryDy=0;" parent="1" source="ePVOCWX1ytfb92GdYlwg-22" target="ePVOCWX1ytfb92GdYlwg-6" edge="1">
          <mxGeometry relative="1" as="geometry">
            <mxPoint x="-1600" y="210" as="sourcePoint" />
            <mxPoint x="-1440" y="210" as="targetPoint" />
          </mxGeometry>
        </mxCell>
        <mxCell id="ePVOCWX1ytfb92GdYlwg-63" value="" style="endArrow=none;html=1;rounded=0;fontFamily=Helvetica;fontSize=12;fontColor=default;exitX=0;exitY=0.5;exitDx=0;exitDy=0;entryX=0.5;entryY=0;entryDx=0;entryDy=0;" parent="1" source="ePVOCWX1ytfb92GdYlwg-6" target="ePVOCWX1ytfb92GdYlwg-50" edge="1">
          <mxGeometry relative="1" as="geometry">
            <mxPoint x="-1600" y="210" as="sourcePoint" />
            <mxPoint x="-1440" y="210" as="targetPoint" />
          </mxGeometry>
        </mxCell>
        <mxCell id="ePVOCWX1ytfb92GdYlwg-64" value="" style="endArrow=none;html=1;rounded=0;fontFamily=Helvetica;fontSize=12;fontColor=default;exitX=0;exitY=1;exitDx=0;exitDy=0;entryX=0.5;entryY=0;entryDx=0;entryDy=0;" parent="1" source="ePVOCWX1ytfb92GdYlwg-6" target="ePVOCWX1ytfb92GdYlwg-51" edge="1">
          <mxGeometry relative="1" as="geometry">
            <mxPoint x="-1600" y="210" as="sourcePoint" />
            <mxPoint x="-1440" y="210" as="targetPoint" />
          </mxGeometry>
        </mxCell>
        <mxCell id="ePVOCWX1ytfb92GdYlwg-65" value="" style="endArrow=none;html=1;rounded=0;fontFamily=Helvetica;fontSize=12;fontColor=default;exitX=1;exitY=1;exitDx=0;exitDy=0;entryX=0.5;entryY=0;entryDx=0;entryDy=0;" parent="1" source="ePVOCWX1ytfb92GdYlwg-6" target="ePVOCWX1ytfb92GdYlwg-56" edge="1">
          <mxGeometry relative="1" as="geometry">
            <mxPoint x="-1600" y="210" as="sourcePoint" />
            <mxPoint x="-1440" y="210" as="targetPoint" />
          </mxGeometry>
        </mxCell>
        <mxCell id="ePVOCWX1ytfb92GdYlwg-66" value="" style="endArrow=none;html=1;rounded=0;fontFamily=Helvetica;fontSize=12;fontColor=default;exitX=1;exitY=0.5;exitDx=0;exitDy=0;entryX=0.5;entryY=0;entryDx=0;entryDy=0;" parent="1" source="ePVOCWX1ytfb92GdYlwg-6" target="ePVOCWX1ytfb92GdYlwg-57" edge="1">
          <mxGeometry relative="1" as="geometry">
            <mxPoint x="-1600" y="210" as="sourcePoint" />
            <mxPoint x="-1440" y="210" as="targetPoint" />
          </mxGeometry>
        </mxCell>
        <mxCell id="ePVOCWX1ytfb92GdYlwg-67" value="név" style="ellipse;whiteSpace=wrap;html=1;align=center;strokeColor=default;verticalAlign=middle;fontFamily=Helvetica;fontSize=12;fontColor=default;fillColor=default;" parent="1" vertex="1">
          <mxGeometry x="-900" y="190" width="100" height="40" as="geometry" />
        </mxCell>
        <mxCell id="ePVOCWX1ytfb92GdYlwg-68" value="életkor" style="ellipse;whiteSpace=wrap;html=1;align=center;strokeColor=default;verticalAlign=middle;fontFamily=Helvetica;fontSize=12;fontColor=default;fillColor=default;" parent="1" vertex="1">
          <mxGeometry x="-770" y="190" width="100" height="40" as="geometry" />
        </mxCell>
        <mxCell id="ePVOCWX1ytfb92GdYlwg-69" value="" style="whiteSpace=wrap;html=1;align=center;strokeColor=default;verticalAlign=middle;fontFamily=Helvetica;fontSize=12;fontColor=default;fillColor=default;direction=south;" parent="1" vertex="1">
          <mxGeometry x="-870" y="270" width="40" height="100" as="geometry" />
        </mxCell>
        <mxCell id="ePVOCWX1ytfb92GdYlwg-70" value="" style="whiteSpace=wrap;html=1;align=center;strokeColor=default;verticalAlign=middle;fontFamily=Helvetica;fontSize=12;fontColor=default;fillColor=default;direction=south;" parent="1" vertex="1">
          <mxGeometry x="-740" y="270" width="40" height="100" as="geometry" />
        </mxCell>
        <mxCell id="ePVOCWX1ytfb92GdYlwg-71" value="" style="endArrow=none;html=1;rounded=0;fontFamily=Helvetica;fontSize=12;fontColor=default;exitX=0.5;exitY=1;exitDx=0;exitDy=0;entryX=0;entryY=0.5;entryDx=0;entryDy=0;" parent="1" source="ePVOCWX1ytfb92GdYlwg-67" target="ePVOCWX1ytfb92GdYlwg-69" edge="1">
          <mxGeometry relative="1" as="geometry">
            <mxPoint x="-640" y="140" as="sourcePoint" />
            <mxPoint x="-480" y="140" as="targetPoint" />
          </mxGeometry>
        </mxCell>
        <mxCell id="ePVOCWX1ytfb92GdYlwg-72" value="" style="endArrow=none;html=1;rounded=0;fontFamily=Helvetica;fontSize=12;fontColor=default;exitX=0.5;exitY=1;exitDx=0;exitDy=0;entryX=0;entryY=0.5;entryDx=0;entryDy=0;" parent="1" source="ePVOCWX1ytfb92GdYlwg-68" target="ePVOCWX1ytfb92GdYlwg-70" edge="1">
          <mxGeometry relative="1" as="geometry">
            <mxPoint x="-640" y="140" as="sourcePoint" />
            <mxPoint x="-480" y="140" as="targetPoint" />
          </mxGeometry>
        </mxCell>
        <mxCell id="ePVOCWX1ytfb92GdYlwg-73" value="rang" style="ellipse;whiteSpace=wrap;html=1;align=center;strokeColor=default;verticalAlign=middle;fontFamily=Helvetica;fontSize=12;fontColor=default;fillColor=default;" parent="1" vertex="1">
          <mxGeometry x="-640" y="190" width="100" height="40" as="geometry" />
        </mxCell>
        <mxCell id="ePVOCWX1ytfb92GdYlwg-74" value="szolgIdő" style="ellipse;whiteSpace=wrap;html=1;align=center;strokeColor=default;verticalAlign=middle;fontFamily=Helvetica;fontSize=12;fontColor=default;fillColor=default;" parent="1" vertex="1">
          <mxGeometry x="-510" y="190" width="100" height="40" as="geometry" />
        </mxCell>
        <mxCell id="ePVOCWX1ytfb92GdYlwg-75" value="" style="whiteSpace=wrap;html=1;align=center;strokeColor=default;verticalAlign=middle;fontFamily=Helvetica;fontSize=12;fontColor=default;fillColor=default;direction=south;" parent="1" vertex="1">
          <mxGeometry x="-610" y="270" width="40" height="100" as="geometry" />
        </mxCell>
        <mxCell id="ePVOCWX1ytfb92GdYlwg-76" value="" style="whiteSpace=wrap;html=1;align=center;strokeColor=default;verticalAlign=middle;fontFamily=Helvetica;fontSize=12;fontColor=default;fillColor=default;direction=south;" parent="1" vertex="1">
          <mxGeometry x="-480" y="270" width="40" height="100" as="geometry" />
        </mxCell>
        <mxCell id="ePVOCWX1ytfb92GdYlwg-77" value="" style="endArrow=none;html=1;rounded=0;fontFamily=Helvetica;fontSize=12;fontColor=default;exitX=0.5;exitY=1;exitDx=0;exitDy=0;entryX=0;entryY=0.5;entryDx=0;entryDy=0;" parent="1" source="ePVOCWX1ytfb92GdYlwg-73" target="ePVOCWX1ytfb92GdYlwg-75" edge="1">
          <mxGeometry relative="1" as="geometry">
            <mxPoint x="-380" y="140" as="sourcePoint" />
            <mxPoint x="-220" y="140" as="targetPoint" />
          </mxGeometry>
        </mxCell>
        <mxCell id="ePVOCWX1ytfb92GdYlwg-78" value="" style="endArrow=none;html=1;rounded=0;fontFamily=Helvetica;fontSize=12;fontColor=default;exitX=0.5;exitY=1;exitDx=0;exitDy=0;entryX=0;entryY=0.5;entryDx=0;entryDy=0;" parent="1" source="ePVOCWX1ytfb92GdYlwg-74" target="ePVOCWX1ytfb92GdYlwg-76" edge="1">
          <mxGeometry relative="1" as="geometry">
            <mxPoint x="-380" y="140" as="sourcePoint" />
            <mxPoint x="-220" y="140" as="targetPoint" />
          </mxGeometry>
        </mxCell>
        <mxCell id="ePVOCWX1ytfb92GdYlwg-79" value="név" style="ellipse;whiteSpace=wrap;html=1;align=center;strokeColor=default;verticalAlign=middle;fontFamily=Helvetica;fontSize=12;fontColor=default;fillColor=default;" parent="1" vertex="1">
          <mxGeometry x="-115" y="190" width="100" height="40" as="geometry" />
        </mxCell>
        <mxCell id="ePVOCWX1ytfb92GdYlwg-80" value="életkor" style="ellipse;whiteSpace=wrap;html=1;align=center;strokeColor=default;verticalAlign=middle;fontFamily=Helvetica;fontSize=12;fontColor=default;fillColor=default;" parent="1" vertex="1">
          <mxGeometry x="15" y="190" width="100" height="40" as="geometry" />
        </mxCell>
        <mxCell id="ePVOCWX1ytfb92GdYlwg-81" value="" style="whiteSpace=wrap;html=1;align=center;strokeColor=default;verticalAlign=middle;fontFamily=Helvetica;fontSize=12;fontColor=default;fillColor=default;direction=south;" parent="1" vertex="1">
          <mxGeometry x="-85" y="270" width="40" height="100" as="geometry" />
        </mxCell>
        <mxCell id="ePVOCWX1ytfb92GdYlwg-82" value="" style="whiteSpace=wrap;html=1;align=center;strokeColor=default;verticalAlign=middle;fontFamily=Helvetica;fontSize=12;fontColor=default;fillColor=default;direction=south;" parent="1" vertex="1">
          <mxGeometry x="45" y="270" width="40" height="100" as="geometry" />
        </mxCell>
        <mxCell id="ePVOCWX1ytfb92GdYlwg-83" value="" style="endArrow=none;html=1;rounded=0;fontFamily=Helvetica;fontSize=12;fontColor=default;exitX=0.5;exitY=1;exitDx=0;exitDy=0;entryX=0;entryY=0.5;entryDx=0;entryDy=0;" parent="1" source="ePVOCWX1ytfb92GdYlwg-79" target="ePVOCWX1ytfb92GdYlwg-81" edge="1">
          <mxGeometry relative="1" as="geometry">
            <mxPoint x="145" y="140" as="sourcePoint" />
            <mxPoint x="305" y="140" as="targetPoint" />
          </mxGeometry>
        </mxCell>
        <mxCell id="ePVOCWX1ytfb92GdYlwg-84" value="" style="endArrow=none;html=1;rounded=0;fontFamily=Helvetica;fontSize=12;fontColor=default;exitX=0.5;exitY=1;exitDx=0;exitDy=0;entryX=0;entryY=0.5;entryDx=0;entryDy=0;" parent="1" source="ePVOCWX1ytfb92GdYlwg-80" target="ePVOCWX1ytfb92GdYlwg-82" edge="1">
          <mxGeometry relative="1" as="geometry">
            <mxPoint x="145" y="140" as="sourcePoint" />
            <mxPoint x="305" y="140" as="targetPoint" />
          </mxGeometry>
        </mxCell>
        <mxCell id="ePVOCWX1ytfb92GdYlwg-85" value="rang" style="ellipse;whiteSpace=wrap;html=1;align=center;strokeColor=default;verticalAlign=middle;fontFamily=Helvetica;fontSize=12;fontColor=default;fillColor=default;" parent="1" vertex="1">
          <mxGeometry x="140" y="190" width="100" height="40" as="geometry" />
        </mxCell>
        <mxCell id="ePVOCWX1ytfb92GdYlwg-86" value="szolgIdő" style="ellipse;whiteSpace=wrap;html=1;align=center;strokeColor=default;verticalAlign=middle;fontFamily=Helvetica;fontSize=12;fontColor=default;fillColor=default;" parent="1" vertex="1">
          <mxGeometry x="275" y="190" width="100" height="40" as="geometry" />
        </mxCell>
        <mxCell id="ePVOCWX1ytfb92GdYlwg-87" value="" style="whiteSpace=wrap;html=1;align=center;strokeColor=default;verticalAlign=middle;fontFamily=Helvetica;fontSize=12;fontColor=default;fillColor=default;direction=south;" parent="1" vertex="1">
          <mxGeometry x="170" y="270" width="40" height="100" as="geometry" />
        </mxCell>
        <mxCell id="ePVOCWX1ytfb92GdYlwg-88" value="" style="whiteSpace=wrap;html=1;align=center;strokeColor=default;verticalAlign=middle;fontFamily=Helvetica;fontSize=12;fontColor=default;fillColor=default;direction=south;" parent="1" vertex="1">
          <mxGeometry x="305" y="270" width="40" height="100" as="geometry" />
        </mxCell>
        <mxCell id="ePVOCWX1ytfb92GdYlwg-89" value="" style="endArrow=none;html=1;rounded=0;fontFamily=Helvetica;fontSize=12;fontColor=default;exitX=0.5;exitY=1;exitDx=0;exitDy=0;entryX=0;entryY=0.5;entryDx=0;entryDy=0;" parent="1" source="ePVOCWX1ytfb92GdYlwg-85" target="ePVOCWX1ytfb92GdYlwg-87" edge="1">
          <mxGeometry relative="1" as="geometry">
            <mxPoint x="400" y="140" as="sourcePoint" />
            <mxPoint x="560" y="140" as="targetPoint" />
          </mxGeometry>
        </mxCell>
        <mxCell id="ePVOCWX1ytfb92GdYlwg-90" value="" style="endArrow=none;html=1;rounded=0;fontFamily=Helvetica;fontSize=12;fontColor=default;exitX=0.5;exitY=1;exitDx=0;exitDy=0;entryX=0;entryY=0.5;entryDx=0;entryDy=0;" parent="1" source="ePVOCWX1ytfb92GdYlwg-86" target="ePVOCWX1ytfb92GdYlwg-88" edge="1">
          <mxGeometry relative="1" as="geometry">
            <mxPoint x="405" y="140" as="sourcePoint" />
            <mxPoint x="565" y="140" as="targetPoint" />
          </mxGeometry>
        </mxCell>
        <mxCell id="ePVOCWX1ytfb92GdYlwg-91" value="" style="endArrow=none;html=1;rounded=0;fontFamily=Helvetica;fontSize=12;fontColor=default;exitX=0;exitY=0;exitDx=0;exitDy=0;entryX=0.5;entryY=0;entryDx=0;entryDy=0;" parent="1" source="ePVOCWX1ytfb92GdYlwg-5" target="ePVOCWX1ytfb92GdYlwg-21" edge="1">
          <mxGeometry relative="1" as="geometry">
            <mxPoint x="-960" y="270" as="sourcePoint" />
            <mxPoint x="-800" y="270" as="targetPoint" />
          </mxGeometry>
        </mxCell>
        <mxCell id="ePVOCWX1ytfb92GdYlwg-92" value="" style="endArrow=none;html=1;rounded=0;fontFamily=Helvetica;fontSize=12;fontColor=default;entryX=0;entryY=0.5;entryDx=0;entryDy=0;exitX=0.5;exitY=0;exitDx=0;exitDy=0;" parent="1" source="ePVOCWX1ytfb92GdYlwg-67" target="ePVOCWX1ytfb92GdYlwg-5" edge="1">
          <mxGeometry relative="1" as="geometry">
            <mxPoint x="-960" y="270" as="sourcePoint" />
            <mxPoint x="-800" y="270" as="targetPoint" />
          </mxGeometry>
        </mxCell>
        <mxCell id="ePVOCWX1ytfb92GdYlwg-93" value="" style="endArrow=none;html=1;rounded=0;fontFamily=Helvetica;fontSize=12;fontColor=default;entryX=0;entryY=1;entryDx=0;entryDy=0;exitX=0.5;exitY=0;exitDx=0;exitDy=0;" parent="1" source="ePVOCWX1ytfb92GdYlwg-68" target="ePVOCWX1ytfb92GdYlwg-5" edge="1">
          <mxGeometry relative="1" as="geometry">
            <mxPoint x="-960" y="270" as="sourcePoint" />
            <mxPoint x="-800" y="270" as="targetPoint" />
          </mxGeometry>
        </mxCell>
        <mxCell id="ePVOCWX1ytfb92GdYlwg-94" value="" style="endArrow=none;html=1;rounded=0;fontFamily=Helvetica;fontSize=12;fontColor=default;entryX=1;entryY=1;entryDx=0;entryDy=0;exitX=0.5;exitY=0;exitDx=0;exitDy=0;" parent="1" source="ePVOCWX1ytfb92GdYlwg-73" target="ePVOCWX1ytfb92GdYlwg-5" edge="1">
          <mxGeometry relative="1" as="geometry">
            <mxPoint x="-960" y="270" as="sourcePoint" />
            <mxPoint x="-800" y="270" as="targetPoint" />
          </mxGeometry>
        </mxCell>
        <mxCell id="ePVOCWX1ytfb92GdYlwg-95" value="" style="endArrow=none;html=1;rounded=0;fontFamily=Helvetica;fontSize=12;fontColor=default;entryX=1;entryY=0.5;entryDx=0;entryDy=0;exitX=0.5;exitY=0;exitDx=0;exitDy=0;" parent="1" source="ePVOCWX1ytfb92GdYlwg-74" target="ePVOCWX1ytfb92GdYlwg-5" edge="1">
          <mxGeometry relative="1" as="geometry">
            <mxPoint x="-450" y="180" as="sourcePoint" />
            <mxPoint x="-800" y="270" as="targetPoint" />
          </mxGeometry>
        </mxCell>
        <mxCell id="ePVOCWX1ytfb92GdYlwg-99" value="" style="endArrow=none;html=1;rounded=0;fontFamily=Helvetica;fontSize=12;fontColor=default;exitX=0.5;exitY=0;exitDx=0;exitDy=0;entryX=0;entryY=0;entryDx=0;entryDy=0;" parent="1" source="ePVOCWX1ytfb92GdYlwg-26" target="ePVOCWX1ytfb92GdYlwg-7" edge="1">
          <mxGeometry relative="1" as="geometry">
            <mxPoint x="100" y="280" as="sourcePoint" />
            <mxPoint x="260" y="280" as="targetPoint" />
          </mxGeometry>
        </mxCell>
        <mxCell id="ePVOCWX1ytfb92GdYlwg-100" value="" style="endArrow=none;html=1;rounded=0;fontFamily=Helvetica;fontSize=12;fontColor=default;exitX=0.5;exitY=0;exitDx=0;exitDy=0;entryX=0;entryY=0.5;entryDx=0;entryDy=0;" parent="1" source="ePVOCWX1ytfb92GdYlwg-79" target="ePVOCWX1ytfb92GdYlwg-7" edge="1">
          <mxGeometry relative="1" as="geometry">
            <mxPoint x="100" y="280" as="sourcePoint" />
            <mxPoint x="260" y="280" as="targetPoint" />
          </mxGeometry>
        </mxCell>
        <mxCell id="ePVOCWX1ytfb92GdYlwg-101" value="" style="endArrow=none;html=1;rounded=0;fontFamily=Helvetica;fontSize=12;fontColor=default;exitX=0.5;exitY=0;exitDx=0;exitDy=0;entryX=0;entryY=1;entryDx=0;entryDy=0;" parent="1" source="ePVOCWX1ytfb92GdYlwg-80" target="ePVOCWX1ytfb92GdYlwg-7" edge="1">
          <mxGeometry relative="1" as="geometry">
            <mxPoint x="100" y="280" as="sourcePoint" />
            <mxPoint x="260" y="280" as="targetPoint" />
          </mxGeometry>
        </mxCell>
        <mxCell id="ePVOCWX1ytfb92GdYlwg-102" value="" style="endArrow=none;html=1;rounded=0;fontFamily=Helvetica;fontSize=12;fontColor=default;exitX=0.5;exitY=1;exitDx=0;exitDy=0;entryX=0.5;entryY=0;entryDx=0;entryDy=0;" parent="1" source="ePVOCWX1ytfb92GdYlwg-7" target="ePVOCWX1ytfb92GdYlwg-85" edge="1">
          <mxGeometry relative="1" as="geometry">
            <mxPoint x="100" y="280" as="sourcePoint" />
            <mxPoint x="260" y="280" as="targetPoint" />
          </mxGeometry>
        </mxCell>
        <mxCell id="ePVOCWX1ytfb92GdYlwg-103" value="" style="endArrow=none;html=1;rounded=0;fontFamily=Helvetica;fontSize=12;fontColor=default;exitX=1;exitY=1;exitDx=0;exitDy=0;entryX=0.5;entryY=0;entryDx=0;entryDy=0;" parent="1" source="ePVOCWX1ytfb92GdYlwg-7" target="ePVOCWX1ytfb92GdYlwg-86" edge="1">
          <mxGeometry relative="1" as="geometry">
            <mxPoint x="100" y="280" as="sourcePoint" />
            <mxPoint x="260" y="280" as="targetPoint" />
          </mxGeometry>
        </mxCell>
        <mxCell id="ePVOCWX1ytfb92GdYlwg-104" value="" style="endArrow=none;html=1;rounded=0;fontFamily=Helvetica;fontSize=12;fontColor=default;exitX=1;exitY=0;exitDx=0;exitDy=0;entryX=0.5;entryY=0;entryDx=0;entryDy=0;" parent="1" source="ePVOCWX1ytfb92GdYlwg-7" target="ePVOCWX1ytfb92GdYlwg-141" edge="1">
          <mxGeometry relative="1" as="geometry">
            <mxPoint x="100" y="280" as="sourcePoint" />
            <mxPoint x="445" y="190.00000000000023" as="targetPoint" />
          </mxGeometry>
        </mxCell>
        <mxCell id="ePVOCWX1ytfb92GdYlwg-105" value="létszám" style="ellipse;whiteSpace=wrap;html=1;align=center;strokeColor=default;verticalAlign=middle;fontFamily=Helvetica;fontSize=12;fontColor=default;fillColor=default;" parent="1" vertex="1">
          <mxGeometry x="760" y="210" width="100" height="40" as="geometry" />
        </mxCell>
        <mxCell id="ePVOCWX1ytfb92GdYlwg-106" value="Szföldi járművek száma" style="ellipse;whiteSpace=wrap;html=1;align=center;strokeColor=default;verticalAlign=middle;fontFamily=Helvetica;fontSize=12;fontColor=default;fillColor=default;" parent="1" vertex="1">
          <mxGeometry x="880" y="210" width="100" height="40" as="geometry" />
        </mxCell>
        <mxCell id="ePVOCWX1ytfb92GdYlwg-107" value="" style="whiteSpace=wrap;html=1;align=center;strokeColor=default;verticalAlign=middle;fontFamily=Helvetica;fontSize=12;fontColor=default;fillColor=default;direction=south;" parent="1" vertex="1">
          <mxGeometry x="790" y="290" width="40" height="100" as="geometry" />
        </mxCell>
        <mxCell id="ePVOCWX1ytfb92GdYlwg-108" value="" style="whiteSpace=wrap;html=1;align=center;strokeColor=default;verticalAlign=middle;fontFamily=Helvetica;fontSize=12;fontColor=default;fillColor=default;direction=south;" parent="1" vertex="1">
          <mxGeometry x="910" y="290" width="40" height="100" as="geometry" />
        </mxCell>
        <mxCell id="ePVOCWX1ytfb92GdYlwg-109" value="" style="endArrow=none;html=1;rounded=0;fontFamily=Helvetica;fontSize=12;fontColor=default;exitX=0.5;exitY=1;exitDx=0;exitDy=0;entryX=0;entryY=0.5;entryDx=0;entryDy=0;" parent="1" source="ePVOCWX1ytfb92GdYlwg-105" target="ePVOCWX1ytfb92GdYlwg-107" edge="1">
          <mxGeometry relative="1" as="geometry">
            <mxPoint x="1020" y="160" as="sourcePoint" />
            <mxPoint x="1180" y="160" as="targetPoint" />
          </mxGeometry>
        </mxCell>
        <mxCell id="ePVOCWX1ytfb92GdYlwg-110" value="" style="endArrow=none;html=1;rounded=0;fontFamily=Helvetica;fontSize=12;fontColor=default;exitX=0.5;exitY=1;exitDx=0;exitDy=0;entryX=0;entryY=0.5;entryDx=0;entryDy=0;" parent="1" source="ePVOCWX1ytfb92GdYlwg-106" target="ePVOCWX1ytfb92GdYlwg-108" edge="1">
          <mxGeometry relative="1" as="geometry">
            <mxPoint x="1010" y="160" as="sourcePoint" />
            <mxPoint x="1170" y="160" as="targetPoint" />
          </mxGeometry>
        </mxCell>
        <mxCell id="ePVOCWX1ytfb92GdYlwg-114" value="létszám" style="ellipse;whiteSpace=wrap;html=1;align=center;strokeColor=default;verticalAlign=middle;fontFamily=Helvetica;fontSize=12;fontColor=default;fillColor=default;" parent="1" vertex="1">
          <mxGeometry x="1250" y="210" width="100" height="40" as="geometry" />
        </mxCell>
        <mxCell id="ePVOCWX1ytfb92GdYlwg-115" value="Hajók száma" style="ellipse;whiteSpace=wrap;html=1;align=center;strokeColor=default;verticalAlign=middle;fontFamily=Helvetica;fontSize=12;fontColor=default;fillColor=default;" parent="1" vertex="1">
          <mxGeometry x="1380" y="210" width="100" height="40" as="geometry" />
        </mxCell>
        <mxCell id="ePVOCWX1ytfb92GdYlwg-116" value="" style="whiteSpace=wrap;html=1;align=center;strokeColor=default;verticalAlign=middle;fontFamily=Helvetica;fontSize=12;fontColor=default;fillColor=default;direction=south;" parent="1" vertex="1">
          <mxGeometry x="1280" y="290" width="40" height="100" as="geometry" />
        </mxCell>
        <mxCell id="ePVOCWX1ytfb92GdYlwg-117" value="" style="whiteSpace=wrap;html=1;align=center;strokeColor=default;verticalAlign=middle;fontFamily=Helvetica;fontSize=12;fontColor=default;fillColor=default;direction=south;" parent="1" vertex="1">
          <mxGeometry x="1410" y="290" width="40" height="100" as="geometry" />
        </mxCell>
        <mxCell id="ePVOCWX1ytfb92GdYlwg-118" value="" style="endArrow=none;html=1;rounded=0;fontFamily=Helvetica;fontSize=12;fontColor=default;exitX=0.5;exitY=1;exitDx=0;exitDy=0;entryX=0;entryY=0.5;entryDx=0;entryDy=0;" parent="1" source="ePVOCWX1ytfb92GdYlwg-114" target="ePVOCWX1ytfb92GdYlwg-116" edge="1">
          <mxGeometry relative="1" as="geometry">
            <mxPoint x="1510" y="160" as="sourcePoint" />
            <mxPoint x="1670" y="160" as="targetPoint" />
          </mxGeometry>
        </mxCell>
        <mxCell id="ePVOCWX1ytfb92GdYlwg-119" value="" style="endArrow=none;html=1;rounded=0;fontFamily=Helvetica;fontSize=12;fontColor=default;exitX=0.5;exitY=1;exitDx=0;exitDy=0;entryX=0;entryY=0.5;entryDx=0;entryDy=0;" parent="1" source="ePVOCWX1ytfb92GdYlwg-115" target="ePVOCWX1ytfb92GdYlwg-117" edge="1">
          <mxGeometry relative="1" as="geometry">
            <mxPoint x="1510" y="160" as="sourcePoint" />
            <mxPoint x="1670" y="160" as="targetPoint" />
          </mxGeometry>
        </mxCell>
        <mxCell id="ePVOCWX1ytfb92GdYlwg-120" value="létszám" style="ellipse;whiteSpace=wrap;html=1;align=center;strokeColor=default;verticalAlign=middle;fontFamily=Helvetica;fontSize=12;fontColor=default;fillColor=default;" parent="1" vertex="1">
          <mxGeometry x="1660" y="210" width="100" height="40" as="geometry" />
        </mxCell>
        <mxCell id="ePVOCWX1ytfb92GdYlwg-121" value="Repűlők száma" style="ellipse;whiteSpace=wrap;html=1;align=center;strokeColor=default;verticalAlign=middle;fontFamily=Helvetica;fontSize=12;fontColor=default;fillColor=default;" parent="1" vertex="1">
          <mxGeometry x="1790" y="210" width="100" height="40" as="geometry" />
        </mxCell>
        <mxCell id="ePVOCWX1ytfb92GdYlwg-122" value="" style="whiteSpace=wrap;html=1;align=center;strokeColor=default;verticalAlign=middle;fontFamily=Helvetica;fontSize=12;fontColor=default;fillColor=default;direction=south;" parent="1" vertex="1">
          <mxGeometry x="1690" y="290" width="40" height="100" as="geometry" />
        </mxCell>
        <mxCell id="ePVOCWX1ytfb92GdYlwg-123" value="" style="whiteSpace=wrap;html=1;align=center;strokeColor=default;verticalAlign=middle;fontFamily=Helvetica;fontSize=12;fontColor=default;fillColor=default;direction=south;" parent="1" vertex="1">
          <mxGeometry x="1820" y="290" width="40" height="100" as="geometry" />
        </mxCell>
        <mxCell id="ePVOCWX1ytfb92GdYlwg-124" value="" style="endArrow=none;html=1;rounded=0;fontFamily=Helvetica;fontSize=12;fontColor=default;entryX=0;entryY=0.5;entryDx=0;entryDy=0;" parent="1" source="ePVOCWX1ytfb92GdYlwg-120" target="ePVOCWX1ytfb92GdYlwg-122" edge="1">
          <mxGeometry relative="1" as="geometry">
            <mxPoint x="1920" y="160" as="sourcePoint" />
            <mxPoint x="2080" y="160" as="targetPoint" />
          </mxGeometry>
        </mxCell>
        <mxCell id="ePVOCWX1ytfb92GdYlwg-125" value="" style="endArrow=none;html=1;rounded=0;fontFamily=Helvetica;fontSize=12;fontColor=default;exitX=0.5;exitY=1;exitDx=0;exitDy=0;entryX=0;entryY=0.5;entryDx=0;entryDy=0;" parent="1" source="ePVOCWX1ytfb92GdYlwg-121" target="ePVOCWX1ytfb92GdYlwg-123" edge="1">
          <mxGeometry relative="1" as="geometry">
            <mxPoint x="1920" y="160" as="sourcePoint" />
            <mxPoint x="2080" y="160" as="targetPoint" />
          </mxGeometry>
        </mxCell>
        <mxCell id="ePVOCWX1ytfb92GdYlwg-129" value="" style="endArrow=none;html=1;rounded=0;fontFamily=Helvetica;fontSize=12;fontColor=default;exitX=0;exitY=0.5;exitDx=0;exitDy=0;entryX=0.5;entryY=0;entryDx=0;entryDy=0;" parent="1" source="ePVOCWX1ytfb92GdYlwg-9" target="ePVOCWX1ytfb92GdYlwg-23" edge="1">
          <mxGeometry relative="1" as="geometry">
            <mxPoint x="1130" y="290" as="sourcePoint" />
            <mxPoint x="1290" y="290" as="targetPoint" />
          </mxGeometry>
        </mxCell>
        <mxCell id="ePVOCWX1ytfb92GdYlwg-130" value="" style="endArrow=none;html=1;rounded=0;fontFamily=Helvetica;fontSize=12;fontColor=default;exitX=0.5;exitY=1;exitDx=0;exitDy=0;entryX=0.5;entryY=0;entryDx=0;entryDy=0;" parent="1" source="ePVOCWX1ytfb92GdYlwg-9" target="ePVOCWX1ytfb92GdYlwg-105" edge="1">
          <mxGeometry relative="1" as="geometry">
            <mxPoint x="1130" y="290" as="sourcePoint" />
            <mxPoint x="1290" y="290" as="targetPoint" />
          </mxGeometry>
        </mxCell>
        <mxCell id="ePVOCWX1ytfb92GdYlwg-131" value="" style="endArrow=none;html=1;rounded=0;fontFamily=Helvetica;fontSize=12;fontColor=default;exitX=1;exitY=0.5;exitDx=0;exitDy=0;entryX=0.5;entryY=0;entryDx=0;entryDy=0;" parent="1" source="ePVOCWX1ytfb92GdYlwg-9" target="ePVOCWX1ytfb92GdYlwg-106" edge="1">
          <mxGeometry relative="1" as="geometry">
            <mxPoint x="1130" y="290" as="sourcePoint" />
            <mxPoint x="1290" y="290" as="targetPoint" />
          </mxGeometry>
        </mxCell>
        <mxCell id="ePVOCWX1ytfb92GdYlwg-132" value="" style="endArrow=none;html=1;rounded=0;fontFamily=Helvetica;fontSize=12;fontColor=default;exitX=0;exitY=0.5;exitDx=0;exitDy=0;entryX=0.5;entryY=0;entryDx=0;entryDy=0;" parent="1" source="ePVOCWX1ytfb92GdYlwg-8" target="ePVOCWX1ytfb92GdYlwg-24" edge="1">
          <mxGeometry relative="1" as="geometry">
            <mxPoint x="1130" y="290" as="sourcePoint" />
            <mxPoint x="1290" y="290" as="targetPoint" />
          </mxGeometry>
        </mxCell>
        <mxCell id="ePVOCWX1ytfb92GdYlwg-133" value="" style="endArrow=none;html=1;rounded=0;fontFamily=Helvetica;fontSize=12;fontColor=default;entryX=0.5;entryY=1;entryDx=0;entryDy=0;exitX=0.5;exitY=0;exitDx=0;exitDy=0;" parent="1" source="ePVOCWX1ytfb92GdYlwg-114" target="ePVOCWX1ytfb92GdYlwg-8" edge="1">
          <mxGeometry relative="1" as="geometry">
            <mxPoint x="1130" y="290" as="sourcePoint" />
            <mxPoint x="1290" y="290" as="targetPoint" />
          </mxGeometry>
        </mxCell>
        <mxCell id="ePVOCWX1ytfb92GdYlwg-134" value="" style="endArrow=none;html=1;rounded=0;fontFamily=Helvetica;fontSize=12;fontColor=default;entryX=1;entryY=0.5;entryDx=0;entryDy=0;exitX=0.5;exitY=0;exitDx=0;exitDy=0;" parent="1" source="ePVOCWX1ytfb92GdYlwg-115" target="ePVOCWX1ytfb92GdYlwg-8" edge="1">
          <mxGeometry relative="1" as="geometry">
            <mxPoint x="1130" y="290" as="sourcePoint" />
            <mxPoint x="1290" y="290" as="targetPoint" />
          </mxGeometry>
        </mxCell>
        <mxCell id="ePVOCWX1ytfb92GdYlwg-135" value="" style="endArrow=none;html=1;rounded=0;fontFamily=Helvetica;fontSize=12;fontColor=default;exitX=0.5;exitY=1;exitDx=0;exitDy=0;entryX=0.5;entryY=0;entryDx=0;entryDy=0;" parent="1" source="ePVOCWX1ytfb92GdYlwg-10" target="ePVOCWX1ytfb92GdYlwg-120" edge="1">
          <mxGeometry relative="1" as="geometry">
            <mxPoint x="1720" y="270" as="sourcePoint" />
            <mxPoint x="1880" y="270" as="targetPoint" />
          </mxGeometry>
        </mxCell>
        <mxCell id="ePVOCWX1ytfb92GdYlwg-136" value="" style="endArrow=none;html=1;rounded=0;fontFamily=Helvetica;fontSize=12;fontColor=default;exitX=0.5;exitY=0;exitDx=0;exitDy=0;entryX=0;entryY=0.5;entryDx=0;entryDy=0;" parent="1" source="ePVOCWX1ytfb92GdYlwg-25" target="ePVOCWX1ytfb92GdYlwg-10" edge="1">
          <mxGeometry relative="1" as="geometry">
            <mxPoint x="1720" y="270" as="sourcePoint" />
            <mxPoint x="1880" y="270" as="targetPoint" />
          </mxGeometry>
        </mxCell>
        <mxCell id="ePVOCWX1ytfb92GdYlwg-137" value="" style="endArrow=none;html=1;rounded=0;fontFamily=Helvetica;fontSize=12;fontColor=default;exitX=1;exitY=0.5;exitDx=0;exitDy=0;entryX=0.5;entryY=0;entryDx=0;entryDy=0;" parent="1" source="ePVOCWX1ytfb92GdYlwg-10" target="ePVOCWX1ytfb92GdYlwg-121" edge="1">
          <mxGeometry relative="1" as="geometry">
            <mxPoint x="1720" y="270" as="sourcePoint" />
            <mxPoint x="1880" y="270" as="targetPoint" />
          </mxGeometry>
        </mxCell>
        <mxCell id="ePVOCWX1ytfb92GdYlwg-141" value="szolgHelye" style="rhombus;whiteSpace=wrap;html=1;strokeColor=default;align=center;verticalAlign=middle;fontFamily=Helvetica;fontSize=12;fontColor=default;fillColor=default;" parent="1" vertex="1">
          <mxGeometry x="490" y="170" width="80" height="80" as="geometry" />
        </mxCell>
        <mxCell id="ePVOCWX1ytfb92GdYlwg-148" value="" style="endArrow=none;dashed=1;html=1;rounded=0;fontFamily=Helvetica;fontSize=12;fontColor=default;" parent="1" edge="1">
          <mxGeometry width="50" height="50" relative="1" as="geometry">
            <mxPoint x="500" y="220" as="sourcePoint" />
            <mxPoint x="560" y="220" as="targetPoint" />
          </mxGeometry>
        </mxCell>
        <mxCell id="ePVOCWX1ytfb92GdYlwg-153" value="T_parancsnok" style="rhombus;whiteSpace=wrap;html=1;strokeColor=default;align=center;verticalAlign=middle;fontFamily=Helvetica;fontSize=12;fontColor=default;fillColor=default;" parent="1" vertex="1">
          <mxGeometry x="390" y="170" width="90" height="80" as="geometry" />
        </mxCell>
        <mxCell id="ePVOCWX1ytfb92GdYlwg-154" value="" style="endArrow=none;dashed=1;html=1;rounded=0;fontFamily=Helvetica;fontSize=12;fontColor=default;" parent="1" edge="1">
          <mxGeometry width="50" height="50" relative="1" as="geometry">
            <mxPoint x="405" y="219.20000000000005" as="sourcePoint" />
            <mxPoint x="465" y="219.20000000000005" as="targetPoint" />
          </mxGeometry>
        </mxCell>
        <mxCell id="ePVOCWX1ytfb92GdYlwg-155" value="F_parancsnok" style="rhombus;whiteSpace=wrap;html=1;strokeColor=default;align=center;verticalAlign=middle;fontFamily=Helvetica;fontSize=12;fontColor=default;fillColor=default;" parent="1" vertex="1">
          <mxGeometry x="-380" y="170" width="90" height="80" as="geometry" />
        </mxCell>
        <mxCell id="ePVOCWX1ytfb92GdYlwg-156" value="" style="endArrow=none;dashed=1;html=1;rounded=0;fontFamily=Helvetica;fontSize=12;fontColor=default;entryX=0.917;entryY=0.598;entryDx=0;entryDy=0;entryPerimeter=0;" parent="1" edge="1">
          <mxGeometry width="50" height="50" relative="1" as="geometry">
            <mxPoint x="-366.27" y="218" as="sourcePoint" />
            <mxPoint x="-303.74000000000024" y="217.83999999999992" as="targetPoint" />
          </mxGeometry>
        </mxCell>
        <mxCell id="ePVOCWX1ytfb92GdYlwg-157" value="irányítja" style="rhombus;whiteSpace=wrap;html=1;strokeColor=default;align=center;verticalAlign=middle;fontFamily=Helvetica;fontSize=12;fontColor=default;fillColor=default;" parent="1" vertex="1">
          <mxGeometry x="-1350" y="170" width="80" height="80" as="geometry" />
        </mxCell>
        <mxCell id="ePVOCWX1ytfb92GdYlwg-158" value="" style="endArrow=none;dashed=1;html=1;rounded=0;fontFamily=Helvetica;fontSize=12;fontColor=default;" parent="1" edge="1">
          <mxGeometry width="50" height="50" relative="1" as="geometry">
            <mxPoint x="-1340" y="220.00000000000006" as="sourcePoint" />
            <mxPoint x="-1280" y="220.00000000000006" as="targetPoint" />
          </mxGeometry>
        </mxCell>
        <mxCell id="ePVOCWX1ytfb92GdYlwg-160" value="" style="endArrow=none;dashed=1;html=1;rounded=0;fontFamily=Helvetica;fontSize=12;fontColor=default;exitX=0.5;exitY=1;exitDx=0;exitDy=0;entryX=1;entryY=0.5;entryDx=0;entryDy=0;" parent="1" source="ePVOCWX1ytfb92GdYlwg-23" target="ePVOCWX1ytfb92GdYlwg-141" edge="1">
          <mxGeometry width="50" height="50" relative="1" as="geometry">
            <mxPoint x="700" y="320" as="sourcePoint" />
            <mxPoint x="750" y="270" as="targetPoint" />
            <Array as="points">
              <mxPoint x="570" y="270" />
            </Array>
          </mxGeometry>
        </mxCell>
        <mxCell id="ePVOCWX1ytfb92GdYlwg-161" value="" style="endArrow=none;dashed=1;html=1;rounded=0;fontFamily=Helvetica;fontSize=12;fontColor=default;exitX=0.5;exitY=1;exitDx=0;exitDy=0;entryX=0.5;entryY=1;entryDx=0;entryDy=0;" parent="1" source="ePVOCWX1ytfb92GdYlwg-141" target="ePVOCWX1ytfb92GdYlwg-24" edge="1">
          <mxGeometry width="50" height="50" relative="1" as="geometry">
            <mxPoint x="700" y="320" as="sourcePoint" />
            <mxPoint x="750" y="270" as="targetPoint" />
            <Array as="points">
              <mxPoint x="530" y="430" />
              <mxPoint x="1160" y="430" />
            </Array>
          </mxGeometry>
        </mxCell>
        <mxCell id="ePVOCWX1ytfb92GdYlwg-162" value="" style="endArrow=none;dashed=1;html=1;rounded=0;fontFamily=Helvetica;fontSize=12;fontColor=default;exitX=0;exitY=0.5;exitDx=0;exitDy=0;entryX=0.5;entryY=1;entryDx=0;entryDy=0;" parent="1" source="ePVOCWX1ytfb92GdYlwg-141" target="ePVOCWX1ytfb92GdYlwg-25" edge="1">
          <mxGeometry width="50" height="50" relative="1" as="geometry">
            <mxPoint x="1120" y="270" as="sourcePoint" />
            <mxPoint x="1170" y="220" as="targetPoint" />
            <Array as="points">
              <mxPoint x="490" y="480" />
              <mxPoint x="1600" y="480" />
            </Array>
          </mxGeometry>
        </mxCell>
        <mxCell id="ePVOCWX1ytfb92GdYlwg-163" value="" style="endArrow=none;dashed=1;html=1;rounded=0;fontFamily=Helvetica;fontSize=12;fontColor=default;exitX=0.5;exitY=1;exitDx=0;exitDy=0;entryX=0.5;entryY=1;entryDx=0;entryDy=0;" parent="1" source="ePVOCWX1ytfb92GdYlwg-20" target="ePVOCWX1ytfb92GdYlwg-157" edge="1">
          <mxGeometry width="50" height="50" relative="1" as="geometry">
            <mxPoint x="-1840" y="460" as="sourcePoint" />
            <mxPoint x="-1790" y="410" as="targetPoint" />
            <Array as="points">
              <mxPoint x="-2750" y="390" />
              <mxPoint x="-1310" y="390" />
            </Array>
          </mxGeometry>
        </mxCell>
        <mxCell id="ePVOCWX1ytfb92GdYlwg-164" value="" style="endArrow=none;html=1;rounded=0;fontFamily=Helvetica;fontSize=12;fontColor=default;exitX=1;exitY=0;exitDx=0;exitDy=0;entryX=0.5;entryY=0;entryDx=0;entryDy=0;" parent="1" source="ePVOCWX1ytfb92GdYlwg-6" target="ePVOCWX1ytfb92GdYlwg-157" edge="1">
          <mxGeometry relative="1" as="geometry">
            <mxPoint x="-1890" y="430" as="sourcePoint" />
            <mxPoint x="-1730" y="430" as="targetPoint" />
          </mxGeometry>
        </mxCell>
        <mxCell id="ePVOCWX1ytfb92GdYlwg-165" value="kinevezésiIdőtartam" style="ellipse;whiteSpace=wrap;html=1;align=center;strokeColor=default;verticalAlign=middle;fontFamily=Helvetica;fontSize=12;fontColor=default;fillColor=default;" parent="1" vertex="1">
          <mxGeometry x="-1240" y="190" width="120" height="40" as="geometry" />
        </mxCell>
        <mxCell id="ePVOCWX1ytfb92GdYlwg-166" value="" style="endArrow=none;html=1;rounded=0;fontFamily=Helvetica;fontSize=12;fontColor=default;exitX=1;exitY=0.5;exitDx=0;exitDy=0;entryX=0;entryY=0.5;entryDx=0;entryDy=0;" parent="1" source="ePVOCWX1ytfb92GdYlwg-157" target="ePVOCWX1ytfb92GdYlwg-165" edge="1">
          <mxGeometry relative="1" as="geometry">
            <mxPoint x="-1440" y="470" as="sourcePoint" />
            <mxPoint x="-1280" y="470" as="targetPoint" />
          </mxGeometry>
        </mxCell>
        <mxCell id="ePVOCWX1ytfb92GdYlwg-167" value="" style="whiteSpace=wrap;html=1;align=center;strokeColor=default;verticalAlign=middle;fontFamily=Helvetica;fontSize=12;fontColor=default;fillColor=default;direction=south;" parent="1" vertex="1">
          <mxGeometry x="-1200" y="270" width="40" height="100" as="geometry" />
        </mxCell>
        <mxCell id="ePVOCWX1ytfb92GdYlwg-168" value="" style="endArrow=none;html=1;rounded=0;fontFamily=Helvetica;fontSize=12;fontColor=default;exitX=0.5;exitY=1;exitDx=0;exitDy=0;entryX=0;entryY=0.5;entryDx=0;entryDy=0;" parent="1" source="ePVOCWX1ytfb92GdYlwg-165" target="ePVOCWX1ytfb92GdYlwg-167" edge="1">
          <mxGeometry relative="1" as="geometry">
            <mxPoint x="-1440" y="470" as="sourcePoint" />
            <mxPoint x="-1280" y="470" as="targetPoint" />
          </mxGeometry>
        </mxCell>
        <mxCell id="ePVOCWX1ytfb92GdYlwg-170" value="" style="endArrow=none;dashed=1;html=1;rounded=0;fontFamily=Helvetica;fontSize=12;fontColor=default;exitX=0.5;exitY=1;exitDx=0;exitDy=0;entryX=0.5;entryY=1;entryDx=0;entryDy=0;" parent="1" source="ePVOCWX1ytfb92GdYlwg-22" target="ePVOCWX1ytfb92GdYlwg-155" edge="1">
          <mxGeometry width="50" height="50" relative="1" as="geometry">
            <mxPoint x="-1120" y="470" as="sourcePoint" />
            <mxPoint x="-1070" y="420" as="targetPoint" />
            <Array as="points">
              <mxPoint x="-1920" y="420" />
              <mxPoint x="-335" y="420" />
            </Array>
          </mxGeometry>
        </mxCell>
        <mxCell id="ePVOCWX1ytfb92GdYlwg-171" value="" style="endArrow=none;html=1;rounded=0;fontFamily=Helvetica;fontSize=12;fontColor=default;entryX=1;entryY=0;entryDx=0;entryDy=0;exitX=0.5;exitY=0;exitDx=0;exitDy=0;" parent="1" source="ePVOCWX1ytfb92GdYlwg-155" target="ePVOCWX1ytfb92GdYlwg-5" edge="1">
          <mxGeometry relative="1" as="geometry">
            <mxPoint x="-1180" y="440" as="sourcePoint" />
            <mxPoint x="-1020" y="440" as="targetPoint" />
          </mxGeometry>
        </mxCell>
        <mxCell id="ePVOCWX1ytfb92GdYlwg-173" value="" style="endArrow=none;dashed=1;html=1;rounded=0;fontFamily=Helvetica;fontSize=12;fontColor=default;exitX=0.5;exitY=1;exitDx=0;exitDy=0;entryX=0.5;entryY=1;entryDx=0;entryDy=0;" parent="1" source="ePVOCWX1ytfb92GdYlwg-21" target="ePVOCWX1ytfb92GdYlwg-153" edge="1">
          <mxGeometry width="50" height="50" relative="1" as="geometry">
            <mxPoint x="-140" y="410" as="sourcePoint" />
            <mxPoint x="-90" y="360" as="targetPoint" />
            <Array as="points">
              <mxPoint x="-970" y="450" />
              <mxPoint x="435" y="450" />
            </Array>
          </mxGeometry>
        </mxCell>
        <mxCell id="ePVOCWX1ytfb92GdYlwg-174" value="" style="endArrow=none;html=1;rounded=0;fontFamily=Helvetica;fontSize=12;fontColor=default;exitX=1;exitY=0.5;exitDx=0;exitDy=0;entryX=0.5;entryY=0;entryDx=0;entryDy=0;" parent="1" source="ePVOCWX1ytfb92GdYlwg-7" target="ePVOCWX1ytfb92GdYlwg-153" edge="1">
          <mxGeometry relative="1" as="geometry">
            <mxPoint x="160" y="300" as="sourcePoint" />
            <mxPoint x="320" y="300" as="targetPoint" />
          </mxGeometry>
        </mxCell>
      </root>
    </mxGraphModel>
  </diagram>
</mxfile>
